<svg xmlns="http://www.w3.org/2000/svg" viewBox="0 0 139.96 80.34"><defs><style>.cls-1{fill:#6b8bff;}</style></defs><g id="Layer_2" data-name="Layer 2"><g id="Layer_1-2" data-name="Layer 1"><path class="cls-1" d="M38.29,64.26h0a5.6,5.6,0,0,0,7.1-3.48l14.9-43.62a5.58,5.58,0,0,0-3.47-7.09h0a5.59,5.59,0,0,0-7.1,3.48L34.81,57.16A5.6,5.6,0,0,0,38.29,64.26Z"/><path class="cls-1" d="M53.2,10.06h0a5.58,5.58,0,0,1,7.09,3.48L75.2,57.15a5.58,5.58,0,0,1-3.48,7.09h0a5.58,5.58,0,0,1-7.09-3.47L49.72,17.15A5.58,5.58,0,0,1,53.2,10.06Z"/><path class="cls-1" d="M68.11,64.24h0a5.6,5.6,0,0,0,7.1-3.47L90.42,16.24a5.58,5.58,0,0,0-3.48-7.09h0a5.59,5.59,0,0,0-7.09,3.48L64.63,57.15A5.58,5.58,0,0,0,68.11,64.24Z"/><path class="cls-1" d="M91.05,33.18h0a5.6,5.6,0,0,1,7.1,3.48l7,20.49a5.58,5.58,0,0,1-3.48,7.09h0a5.58,5.58,0,0,1-7.09-3.47l-7-20.49A5.6,5.6,0,0,1,91.05,33.18Z"/><path class="cls-1" d="M74.47,15.14,84.6,7.36a3,3,0,0,1,4.68,1.43l4.19,12.37A3,3,0,0,1,89.7,25l-7.48-2.41-6.84-2.19A3,3,0,0,1,74.47,15.14Z"/><path class="cls-1" d="M15.53,40.17l26.1,40.17H26.1L0,40.17,26.1,0H41.63Zm108.9,0L98.33,80.34h15.53L140,40.17,113.86,0H98.33Z"/></g></g></svg>